<svg id="Layer_1" data-name="Layer 1" xmlns="http://www.w3.org/2000/svg" viewBox="0 0 553.69 203.31"><defs><style>.cls-1{fill:#f0f2f7;}</style></defs><path class="cls-1" d="M188.56,107.3v28.43a17.43,17.43,0,0,0,6.47,13.7,23.36,23.36,0,0,0,15.85,5.6,22.86,22.86,0,0,0,15.71-5.6,17.61,17.61,0,0,0,6.34-13.7V106.82a14.38,14.38,0,0,1,5.23-11.56q5.24-4.41,13.51-4.41T265,95.26a14.54,14.54,0,0,1,5.1,11.56v28.91q0,21.69-17.09,36.59t-42.16,14.9q-25.37,0-42.44-14.78t-17.09-36.71V107.3a14.9,14.9,0,0,1,5.1-11.68q5.1-4.53,13.37-4.53t13.5,4.53A14.73,14.73,0,0,1,188.56,107.3Z"/><path class="cls-1" d="M402.85,127.69q0,25.08-17.08,42.3T343.6,187.22q-25.35,0-42.44-17.09t-17.09-42.44V32.89q0-8.28,5.1-13.51t13.37-5.23q8.26,0,13.5,5.23a18.28,18.28,0,0,1,5.24,13.51v14.6h63.11q8.26,0,13.36,5.1T402.85,66q0,18.74-18.46,18.74H321.28v43A22.09,22.09,0,0,0,343.6,150a21.14,21.14,0,0,0,15.71-6.47,21.83,21.83,0,0,0,6.34-15.85v-2.48A17.7,17.7,0,0,1,371,112a18.4,18.4,0,0,1,13.37-5.23,17.89,17.89,0,0,1,18.46,18.46Z"/><path class="cls-1" d="M454,107.3v28.43a17.44,17.44,0,0,0,6.48,13.7,23.32,23.32,0,0,0,15.84,5.6,22.84,22.84,0,0,0,15.71-5.6,17.58,17.58,0,0,0,6.34-13.7V106.82a14.38,14.38,0,0,1,5.23-11.56q5.23-4.41,13.51-4.41t13.36,4.41a14.54,14.54,0,0,1,5.1,11.56v28.91q0,21.69-17.08,36.59t-42.17,14.9q-25.35,0-42.44-14.78t-17.09-36.71V107.3a14.9,14.9,0,0,1,5.1-11.68q5.1-4.53,13.37-4.53t13.5,4.53A14.73,14.73,0,0,1,454,107.3Z"/><path class="cls-1" d="M138.35,129q0,25.44-17.33,42.9T78.27,189.4q-25.71,0-43-17.32T17.91,129V32.91q0-8.38,5.17-13.69t13.55-5.31q8.38,0,13.69,5.31t5.31,13.69V47.72h64q8.38,0,13.55,5.17t5.17,13.55q0,19-18.72,19h-64V129a22.43,22.43,0,0,0,22.64,22.64,21.41,21.41,0,0,0,15.93-6.57A22.12,22.12,0,0,0,100.63,129v-2.52a17.94,17.94,0,0,1,5.44-13.41,18.67,18.67,0,0,1,13.56-5.31,18.16,18.16,0,0,1,18.72,18.72Z"/></svg>