<svg id="Layer_1" data-name="Layer 1" xmlns="http://www.w3.org/2000/svg" viewBox="0 0 190.94 203.31"><defs><style>.cls-1{fill:#3843d2;}.cls-2{fill:#fff;}</style></defs><circle class="cls-1" cx="95.47" cy="101.17" r="89"/><path class="cls-2" d="M133.62,118.51a37.09,37.09,0,0,1-11,27.18q-11,11.06-27.08,11.06-16.29,0-27.26-11t-11-27.26V57.62A11.91,11.91,0,0,1,60.6,49a11.46,11.46,0,0,1,8.59-3.36,11.51,11.51,0,0,1,12,12V67h40.54a11.26,11.26,0,0,1,11.86,11.86q0,12-11.86,12H81.22v27.61a14.21,14.21,0,0,0,14.34,14.34,13.54,13.54,0,0,0,10.09-4.16,14,14,0,0,0,4.07-10.18v-1.59a11.35,11.35,0,0,1,3.45-8.49,11.79,11.79,0,0,1,8.59-3.37,11.51,11.51,0,0,1,11.86,11.86Z"/></svg>